# xmcd CD database generated by RipIT
#
# Track frame offsets:
# 150
# 23189
# 40427
# 51545
# 68765
# 85684
# 98624
# 111562
# 128127
# 142936
# 158827
#
# Disc length: 2313 seconds
#
# Revision: 2
# Processed by: cddbd v1.5.2PL0 Copyright (c) Steve Scherf et al.
# Submitted via: RipIT 3.9.0 www.suwald.com/ripit/ripit.html on 2017-11-19 at 07:15
#
DISCID=9309070b
DTITLE=Jeff Tweedy - Together At Last
DYEAR=2017
DGENRE=Alternative Rock
TTITLE0=Via Chicago
TTITLE1=Laminated Cat
TTITLE2=Lost Love
TTITLE3=Muzzle Of Bees
TTITLE4=Ashes Of American Flags
TTITLE5=Dawned On Me
TTITLE6=In A Future Age
TTITLE7=I'm Trying To Break Your Heart
TTITLE8=Hummingbird
TTITLE9=I'm Always In Love
TTITLE10=Sky Blue Sky
EXTD=Release-Date: 23.06.2017\n
EXTD=MARO\n
EXTT0=
EXTT1=
EXTT2=
EXTT3=
EXTT4=
EXTT5=
EXTT6=
EXTT7=
EXTT8=
EXTT9=
EXTT10=
PLAYORDER=
